<?xml version="1.0" encoding="UTF-8" standalone="no"?>
<!-- Created with Inkscape (http://www.inkscape.org/) -->

<svg
   xmlns:dc="http://purl.org/dc/elements/1.1/"
   xmlns:cc="http://creativecommons.org/ns#"
   xmlns:rdf="http://www.w3.org/1999/02/22-rdf-syntax-ns#"
   xmlns:svg="http://www.w3.org/2000/svg"
   xmlns="http://www.w3.org/2000/svg"
   xmlns:sodipodi="http://sodipodi.sourceforge.net/DTD/sodipodi-0.dtd"
   xmlns:inkscape="http://www.inkscape.org/namespaces/inkscape"
   width="744.09448"
   height="1052.3622"
   id="svg2"
   version="1.1"
   inkscape:version="0.48.4 r9939"
   sodipodi:docname="1_title_portrait.svg">
  <defs
     id="defs4" />
  <sodipodi:namedview
     id="base"
     pagecolor="#ffffff"
     bordercolor="#666666"
     borderopacity="1.0"
     inkscape:pageopacity="0.0"
     inkscape:pageshadow="2"
     inkscape:zoom="0.7"
     inkscape:cx="389.54725"
     inkscape:cy="411.66043"
     inkscape:document-units="mm"
     inkscape:current-layer="layer3"
     showgrid="false"
     inkscape:window-width="1680"
     inkscape:window-height="1000"
     inkscape:window-x="0"
     inkscape:window-y="0"
     inkscape:window-maximized="1"
     showguides="false"
     inkscape:guide-bbox="true"
     units="mm"
     inkscape:snap-grids="false"
     inkscape:snap-bbox="true"
     inkscape:snap-bbox-midpoints="true"
     inkscape:snap-global="true"
     inkscape:snap-to-guides="true">
    <sodipodi:guide
       orientation="0,1"
       position="-35.433071,350.7874"
       id="guide3069" />
    <sodipodi:guide
       orientation="0,1"
       position="-35.433071,701.5748"
       id="guide3071" />
    <inkscape:grid
       units="mm"
       empspacing="10"
       visible="true"
       enabled="true"
       snapvisiblegridlinesonly="true"
       type="xygrid"
       id="grid3073" />
    <sodipodi:guide
       orientation="0,1"
       position="-35.433071,526.1811"
       id="guide3079" />
    <sodipodi:guide
       orientation="0,1"
       position="-35.433071,175.3937"
       id="guide3081" />
    <sodipodi:guide
       orientation="0,1"
       position="-35.433071,876.9685"
       id="guide3083" />
    <sodipodi:guide
       orientation="0,1"
       position="-35.433071,789.27165"
       id="guide3085" />
    <sodipodi:guide
       orientation="0,1"
       position="-35.433071,613.87795"
       id="guide3087" />
    <sodipodi:guide
       orientation="0,1"
       position="-35.433071,87.69685"
       id="guide3089" />
  </sodipodi:namedview>
  <metadata
     id="metadata7">
    <rdf:RDF>
      <cc:Work
         rdf:about="">
        <dc:format>image/svg+xml</dc:format>
        <dc:type
           rdf:resource="http://purl.org/dc/dcmitype/StillImage" />
        <dc:title />
      </cc:Work>
    </rdf:RDF>
  </metadata>
  <g
     inkscape:groupmode="layer"
     id="layer3"
     inkscape:label="Deckblatt"
     transform="translate(0,-2.5390623e-6)"
     style="display:inline">
    <g
       id="g3055"
       transform="translate(93.781433,248.90889)">
      <text
         sodipodi:linespacing="125%"
         id="text3047"
         y="434.14883"
         x="279.31418"
         style="font-size:16px;font-style:normal;font-variant:normal;font-weight:normal;font-stretch:normal;text-align:center;line-height:125%;letter-spacing:2.13999987px;word-spacing:0px;text-anchor:middle;fill:#000000;fill-opacity:1;stroke:none;font-family:EB Garamond 12 All SC;-inkscape-font-specification:EB Garamond 12 All SC"
         xml:space="preserve"><tspan
           y="434.14883"
           x="280.38419"
           id="tspan3049"
           sodipodi:role="line">baldassare</tspan></text>
      <text
         sodipodi:linespacing="125%"
         id="text3051"
         y="452.66589"
         x="277.94019"
         style="font-size:12px;font-style:normal;font-variant:normal;font-weight:normal;font-stretch:normal;text-align:center;line-height:125%;letter-spacing:5.19000053px;word-spacing:0px;text-anchor:middle;fill:#d40000;fill-opacity:1;stroke:none;font-family:EB Garamond;-inkscape-font-specification:EB Garamond"
         xml:space="preserve"><tspan
           style="font-size:20px;letter-spacing:5.19000053px;fill:#d40000"
           y="452.66589"
           x="280.53519"
           id="tspan3053"
           sodipodi:role="line">GALUPPI</tspan></text>
    </g>
    <text
       xml:space="preserve"
       style="font-size:12px;font-style:normal;font-variant:normal;font-weight:normal;font-stretch:normal;text-align:center;line-height:110.00000238%;letter-spacing:0px;word-spacing:0px;text-anchor:middle;fill:#000000;fill-opacity:1;stroke:none;font-family:EB Garamond;-inkscape-font-specification:EB Garamond"
       x="372.3208"
       y="412.09424"
       id="text3061"
       sodipodi:linespacing="110%"><tspan
         sodipodi:role="line"
         x="372.3208"
         y="412.09424"
         style="font-size:14px;font-style:normal;line-height:110.00000238%;-inkscape-font-specification:EB Garamond"
         id="tspan3045">Alma Redemptoris Mater</tspan><tspan
         sodipodi:role="line"
         x="372.3208"
         y="427.49423"
         style="font-size:14px;font-style:normal;line-height:110.00000238%;-inkscape-font-specification:EB Garamond"
         id="tspan3027"></tspan><tspan
         sodipodi:role="line"
         x="372.3208"
         y="442.89423"
         style="font-size:14px;font-style:normal;line-height:110.00000238%;-inkscape-font-specification:EB Garamond"
         id="tspan3029">BurG II/63</tspan></text>
    <text
       xml:space="preserve"
       style="font-size:14px;font-style:normal;font-variant:normal;font-weight:normal;font-stretch:normal;text-align:center;line-height:125%;letter-spacing:1.84000015px;word-spacing:0px;text-anchor:middle;fill:#000000;fill-opacity:1;stroke:none;font-family:EB Garamond 12 All SC;-inkscape-font-specification:EB Garamond 12 All SC"
       x="372.06738"
       y="967.76636"
       id="text3099"
       sodipodi:linespacing="125%"><tspan
         sodipodi:role="line"
         x="372.9874"
         y="967.76636"
         id="tspan3023">organo</tspan></text>
    <text
       sodipodi:linespacing="110%"
       id="text3021"
       y="876.96851"
       x="371.86884"
       style="font-size:12px;font-style:normal;font-variant:normal;font-weight:normal;font-stretch:normal;text-align:center;line-height:110.00000238%;letter-spacing:0px;word-spacing:0px;text-anchor:middle;fill:#000000;fill-opacity:1;stroke:none;font-family:EB Garamond;-inkscape-font-specification:EB Garamond"
       xml:space="preserve"><tspan
         id="tspan3032"
         style="font-size:14px;font-style:normal;line-height:110.00000238%;-inkscape-font-specification:EB Garamond"
         y="876.96851"
         x="371.86884"
         sodipodi:role="line">A (Solo), 2 vl, vla, b, org</tspan></text>
    <path
       style="fill:#4d4d4d;display:inline"
       d="m 414.29022,290.20997 c -2.16584,-1.10765 -5.42321,-11.61541 -3.82353,-12.18639 0.38084,-0.13594 1.41431,1.76566 2.2966,4.22575 1.72191,4.80125 3.41627,6.52204 6.42186,6.52204 3.42004,0 4.29542,-2.46259 4.56734,-12.84869 0.26267,-10.03257 0.091,-10.40091 -3.45571,-7.41649 -3.52077,2.96252 -4.27357,2.38933 -5.10629,-3.88795 l -0.4724,-3.5612 -1.26975,1.56806 c -0.69836,0.86248 -1.26975,2.08335 -1.26975,2.71307 0,1.5661 -2.00664,4.31308 -2.79482,3.82594 -0.35198,-0.21752 -0.63996,-0.99428 -0.63996,-1.72613 0,-0.73186 -0.64779,-3.2025 -1.43954,-5.49032 -0.86032,-2.48598 -1.26507,-4.85489 -1.00589,-5.8875 0.63201,-2.51814 2.59741,-1.81724 3.45538,1.23228 0.99522,3.53723 1.40657,3.70626 3.18049,1.30693 0.85997,-1.16319 2.1097,-2.11487 2.77718,-2.11487 1.21968,0 1.35693,0.43666 2.2398,7.1264 0.19316,1.46366 0.5289,2.83889 0.74608,3.05607 0.21718,0.21718 1.33226,-0.54251 2.47795,-1.68821 1.77227,-1.77226 2.31078,-3.21214 3.60898,-9.64972 1.50672,-7.47155 2.97593,-10.90544 4.99791,-11.68136 3.12721,-1.20002 2.53706,5.35817 -1.15512,12.83682 -1.4325,2.90154 -1.96409,5.21286 -2.29095,9.96084 -0.99204,14.41013 -1.58735,16.55303 -1.12322,19.82825 0.50805,3.58518 -2.6727,5.77556 -2.6727,5.77556 -3.65737,0.12225 -5.82791,-0.60054 -8.24994,-1.83918 z m -36.30435,-1.95379 c -0.31914,-0.66119 -0.6628,-5.0663 -0.7637,-9.78912 -0.20771,-9.72407 -0.89328,-11.6807 -4.01733,-11.46558 -1.86714,0.12855 -1.90364,0.0563 -2.10461,-4.16265 -0.11249,-2.3614 -0.46867,-4.29347 -0.7915,-4.29347 -0.73784,0 -2.09528,3.81293 -2.09528,5.88546 0,2.21293 -0.69137,3.73191 -1.69859,3.73191 -0.58059,0 -0.97881,-1.59584 -1.21221,-4.85786 -0.19117,-2.67184 -0.66946,-5.17976 -1.06288,-5.57318 -1.48423,-1.48424 -2.20913,0.30923 -2.21944,5.49116 -0.005,2.90586 -0.25128,5.66233 -0.54553,6.1255 -0.53321,0.83931 -1.25453,0.92761 -8.32785,1.01951 -3.31887,0.0431 -3.9075,-0.17119 -5.32049,-1.93702 -1.1054,-1.38143 -1.5898,-2.88607 -1.59217,-4.9456 -0.002,-1.79772 -0.27316,-2.79338 -0.69037,-2.53554 -0.37783,0.23351 -0.68696,0.88916 -0.68696,1.457 0,0.56784 -0.7791,2.67933 -1.73136,4.69222 -1.43528,3.03394 -2.11077,3.73817 -3.94999,4.1181 -8.95782,1.85041 -10.32125,1.13779 -10.58086,-5.53032 -0.22126,-5.68341 1.01331,-8.9695 3.61516,-9.62253 1.3938,-0.34982 2.10455,-0.14782 2.79308,0.7938 1.423,1.94606 1.15537,6.98885 -0.49379,9.3049 -1.5426,2.16639 -1.28658,3.37377 0.71539,3.37377 1.09936,0 1.28053,-0.56661 1.29723,-4.05729 0.0192,-4.00062 1.31862,-8.39838 2.74147,-9.27774 0.40101,-0.24783 1.36937,-0.0537 2.15191,0.43135 1.1873,0.73598 1.53132,0.7114 2.0783,-0.14846 0.77786,-1.22284 0.86234,-4.15233 0.15077,-5.22856 -0.27758,-0.41984 -1.97161,-0.97954 -3.76451,-1.24378 -4.90588,-0.72303 -7.08448,-4.09384 -6.77382,-10.48074 0.17068,-3.50917 4.27395,-4.77355 7.43139,-2.28991 2.00513,1.57724 4.31963,5.58978 4.31963,7.48876 0,1.67653 1.76126,2.34554 3.59348,1.36497 2.80416,-1.50074 6.0239,-4.95969 6.0239,-6.47142 0,-2.64502 -4.32894,-2.90697 -5.15262,-0.31178 -1.20788,3.80568 -4.02382,2.68115 -2.97422,-1.18775 0.91302,-3.3654 4.85806,-4.89841 8.94192,-3.47478 4.46074,1.55503 0.8187,9.35247 -6.11627,13.09469 l -3.53496,1.90749 0.0212,5.30554 0.0212,5.30552 1.28061,-2.49533 c 1.54259,-3.00584 4.1232,-3.92259 6.55554,-2.32887 2.08953,1.36912 2.07148,2.91571 -0.0862,7.38837 -0.95196,1.97333 -1.57993,3.98116 -1.39547,4.46185 0.38228,0.99619 3.67913,1.15537 5.11382,0.24689 1.31657,-0.83369 1.40141,-9.79445 0.1075,-11.35351 -1.41102,-1.70018 0.15595,-3.08626 2.10968,-1.86614 1.19201,0.74443 1.61551,0.7138 2.61302,-0.18894 1.8575,-1.68101 3.5188,-1.30831 4.38386,0.98352 0.94789,2.51124 2.01586,2.6159 3.50481,0.34347 1.18455,-1.80786 3.09934,-2.31636 3.23348,-0.85869 0.0435,0.47229 0.0153,2.79076 -0.0625,5.15217 -0.11545,3.5014 0.0571,4.29346 0.93558,4.29346 1.3202,0 2.77084,-2.13155 4.19206,-6.15973 1.38523,-3.92615 2.99748,-5.77129 4.1831,-4.78732 0.69658,0.57812 0.53648,1.45382 -0.78451,4.29105 -1.70131,3.65405 -2.18526,7.63232 -1.01635,8.35474 1.19744,0.74006 2.65805,-2.66556 3.14004,-7.3215 0.45452,-4.39053 1.78307,-6.55608 2.64466,-4.31083 0.54935,1.43156 -0.91746,17.03679 -1.67302,17.79923 -0.40616,0.40986 -0.64672,0.10553 -0.64672,-0.81815 0,-1.92017 -0.86947,-2.39658 -2.93831,-1.61001 -1.98957,0.75643 -2.61316,4.26123 -2.03648,11.4455 0.42267,5.26557 1.4191,5.47242 2.80927,0.58319 1.50556,-5.29506 1.68408,-5.64987 1.98467,-3.94467 0.33244,1.88583 -2.32563,10.6302 -3.44813,11.34345 -1.26457,0.80353 -1.76218,0.66872 -2.39857,-0.64977 z m -35.32034,-24.77072 c -0.28951,-2.49805 -2.42154,-2.86779 -3.01028,-0.52207 -0.68797,2.74114 0.0653,4.04916 1.79792,3.1219 1.0055,-0.53813 1.36257,-1.30383 1.21236,-2.59983 z m -9.47291,0.5296 c 0.41204,-0.76992 0.55149,-2.02272 0.30986,-2.78399 -0.63265,-1.99334 -2.38462,-0.3718 -2.38462,2.20709 0,2.30319 1.00179,2.58174 2.07476,0.5769 z m 18.39651,-1.48535 c 1.10322,-1.10324 1.05356,-3.98435 -0.0687,-3.98435 -1.37616,0 -2.54173,1.4806 -2.54173,3.22869 0,1.70813 1.28576,2.08032 2.61043,0.75566 z m -8.79303,-16.76172 c 0,-2.02257 -4.2546,-6.75388 -5.6588,-6.29286 -0.477,0.15662 -0.96944,1.33671 -1.09432,2.62242 -0.18363,1.89062 0.14479,2.63524 1.71739,3.89369 2.73946,2.19223 5.03573,2.09043 5.03573,-0.22325 z m -111.02001,33.83762 c -2.20105,-1.89326 -1.89728,-3.50073 0.78899,-4.17495 1.29363,-0.32468 2.24634,-0.10986 3.15346,0.71107 1.14784,1.03879 1.51023,1.06368 3.09994,0.2129 0.99007,-0.52987 2.11864,-1.66245 2.50794,-2.51686 0.59179,-1.29885 1.86116,-2.1813 1.86116,-1.29385 0,1.38778 -2.44555,5.43762 -4.1493,6.87123 -2.64532,2.22588 -4.82928,2.28316 -7.26219,0.19046 z m 14.84627,-0.32705 c 0,-0.68707 0.43329,-2.77369 0.96285,-4.63694 0.52957,-1.86325 1.16633,-4.57089 1.41501,-6.01697 0.42161,-2.45159 0.3462,-2.61405 -1.11602,-2.40434 -0.98568,0.14136 -2.145,1.24556 -3.12109,2.97273 -1.55436,2.75035 -1.83665,2.72008 -1.6024,-0.17175 0.10437,-1.28855 -0.21902,-1.54564 -1.94429,-1.54564 -2.30972,0 -3.0478,-0.71358 -2.42278,-2.34236 0.26836,-0.69932 1.2516,-1.09242 2.73241,-1.09242 2.92507,0 3.58548,-1.22657 6.10285,-11.33477 1.97991,-7.95006 3.04984,-9.79528 5.86302,-10.11137 1.45446,-0.16342 1.69637,0.0699 1.58016,1.52443 -0.44706,5.59485 -0.93981,8.66286 -1.99579,12.42638 -0.96442,3.43713 -1.02667,4.48023 -0.33371,5.58986 0.71571,1.14604 0.63605,1.59974 -0.49814,2.837 -0.74255,0.81005 -1.69303,3.11096 -2.11217,5.11313 -0.97339,4.64971 -0.96072,4.94662 0.2111,4.94662 0.53525,0 1.11174,0.38642 1.28109,0.85869 0.44403,1.23839 -0.75657,3.26304 -1.93498,3.26304 -0.55343,0 -1.00625,0.30913 -1.00625,0.68696 0,0.37782 -0.46369,0.68695 -1.03043,0.68695 -0.56674,0 -1.03044,-0.56215 -1.03044,-1.24923 z m 4.00799,-18.8442 c 0.37387,-1.22794 0.87319,-4.34888 1.10959,-6.93544 0.33048,-3.61587 0.23043,-4.63635 -0.43287,-4.41525 -1.63937,0.54646 -5.34077,12.01128 -4.23486,13.11719 1.19578,1.19578 2.91628,0.3416 3.55814,-1.7665 z m 5.21815,17.61894 c -0.83404,-0.34642 -0.6624,-8.0617 0.44027,-19.79069 0.61366,-6.52737 1.05972,-8.23952 3.45307,-13.25408 1.88653,-3.95266 3.29173,-6.00602 4.48103,-6.5479 1.39101,-0.63378 1.85981,-0.59396 2.37769,0.20194 1.01852,1.56536 -0.38105,8.0524 -2.58524,11.98267 -0.42379,0.75565 -1.86333,4.01386 -3.19898,7.24047 -1.88177,4.54586 -2.47695,7.02025 -2.64384,10.99128 l -0.21538,5.12473 2.23261,-0.17436 c 2.9891,-0.23342 2.94943,1.33666 -0.081,3.20962 -2.32761,1.43855 -2.90942,1.57735 -4.26015,1.01632 z m 6.15612,-27.75095 c 2.73176,-6.82524 2.74391,-6.87015 1.85947,-6.87015 -0.95753,0 -3.32743,4.39798 -4.50295,8.3564 -2.3287,7.84158 -0.7302,6.94285 2.64348,-1.48625 z m 4.56699,24.09431 c -0.5028,-0.93948 -0.66024,-2.52967 -0.39201,-3.95944 0.31746,-1.69222 0.0201,-3.42496 -1.01927,-5.93853 -1.19553,-2.89134 -1.32983,-3.9096 -0.72462,-5.49408 0.9354,-2.44896 2.2787,-2.0609 2.86976,0.82901 0.51052,2.49612 1.33979,3.58946 1.78325,2.35106 0.60877,-1.70003 3.31989,-5.27467 3.98142,-5.24955 0.37783,0.0143 1.32237,1.1464 2.09901,2.51567 l 1.41205,2.48961 2.46788,-2.89976 c 3.34127,-3.92601 4.32539,-2.98992 4.32539,4.11432 0,3.50188 0.2768,5.31956 0.83917,5.51076 1.2515,0.42549 4.31261,-2.95468 4.31556,-4.76538 0.003,-2.22876 2.49268,-6.04208 3.94382,-6.04208 0.67033,0 1.59948,-0.60962 2.0648,-1.35472 1.05418,-1.688 2.92197,-1.10235 2.9118,0.913 -0.004,0.80969 -0.45616,2.951 -1.00458,4.75847 -1.23342,4.06502 -0.56957,6.13729 2.35402,7.34828 1.1795,0.48856 2.02498,1.23238 1.87883,1.65292 -0.30435,0.87579 -4.6072,0.6293 -5.58924,-0.32017 -0.39941,-0.38613 -1.36883,0.0583 -2.50817,1.14983 -2.16169,2.07104 -4.30272,1.95798 -4.61684,-0.24378 -0.25327,-1.7752 -1.62572,-2.00962 -2.88465,-0.49269 -0.92237,1.11138 -3.3448,0.75925 -4.28807,-0.62332 -0.28747,-0.42135 -0.3752,-2.5436 -0.19494,-4.71609 0.18595,-2.24119 0.0482,-3.95 -0.31838,-3.95 -1.01832,0 -2.74225,3.84495 -2.74225,6.11617 0,2.19206 -1.2645,5.56207 -2.08701,5.56207 -1.49025,0 -2.26395,-2.26546 -1.6102,-4.71475 0.69423,-2.60093 0.10139,-6.55734 -1.0931,-7.29561 -1.07042,-0.66156 -2.75558,3.46383 -3.21658,7.87436 -0.23811,2.27806 -0.81175,4.66 -1.27475,5.2932 -0.76861,1.05114 -0.91492,1.01471 -1.6821,-0.41878 z m 25.73133,-6.22791 c 0.60124,-1.89436 -0.40948,-3.43794 -1.0987,-1.67794 -0.2861,0.73057 -0.5419,1.71472 -0.56847,2.187 -0.0774,1.3766 1.19167,0.98908 1.66717,-0.50906 z m 16.1454,6.52347 c -2.15752,-0.77437 -2.42604,-1.15384 -2.61558,-3.6963 -0.2092,-2.80603 -0.18874,-2.83332 2.12613,-2.83332 1.47404,0 2.80204,0.51347 3.59544,1.39014 1.69486,1.8728 2.29821,1.04216 3.03887,-4.18374 0.3445,-2.43069 0.97236,-6.89247 1.39524,-9.91507 0.42288,-3.02261 1.21783,-7.02012 1.76656,-8.88336 1.18752,-4.03239 1.17124,-3.82532 0.30062,-3.82532 -0.38339,0 -1.30962,1.00467 -2.05831,2.23261 -1.13437,1.86051 -1.36167,1.99193 -1.36381,0.78854 -0.001,-0.79423 0.70323,-2.49445 1.56588,-3.77826 1.37301,-2.04334 1.98414,-2.36077 4.90452,-2.54749 3.76309,-0.24059 5.45404,0.72897 3.66223,2.09984 -0.83136,0.63606 -1.19394,2.29833 -1.38658,6.35693 -0.14348,3.0226 -0.67025,7.28613 -1.1706,9.4745 -0.73741,3.22519 -0.74477,4.28708 -0.0389,5.60609 0.47898,0.89497 1.23078,3.43231 1.67069,5.63851 0.72082,3.61515 0.98397,4.03276 2.66454,4.22865 2.33732,0.27247 2.37094,0.99695 0.10264,2.21091 -2.61739,1.40079 -3.87657,0.18982 -5.09066,-4.89573 -1.00397,-4.2054 -1.13898,-4.3958 -3.02171,-4.26133 -2.47964,0.17711 -2.37435,0.0447 -3.09282,3.89044 -0.6063,3.24538 -2.39562,6.00047 -3.79783,5.84769 -0.41371,-0.0451 -1.83417,-0.4703 -3.15655,-0.94493 z m 12.27143,-16.07777 c 0.90431,-2.70479 1.02919,-10.97894 0.18579,-12.30905 -0.62514,-0.98588 -1.14935,0.11045 -3.11436,6.51339 -1.11699,3.6397 -0.85865,7.69817 0.54853,8.61739 0.94984,0.62047 1.41264,0.0718 2.38004,-2.82173 z m 187.48559,13.85134 c -2.03266,-2.31423 -2.09288,-4.00111 -0.17406,-4.87538 2.55737,-1.16522 4.29593,-0.98575 5.10555,0.52703 0.89543,1.67313 0.87074,2.18254 -0.17205,3.55171 -1.36731,1.79521 -3.55999,2.16222 -4.75944,0.79664 z m -7.42106,-1.24219 c -0.36545,-0.96122 -0.85695,-2.58416 -1.09218,-3.60652 -0.23526,-1.02235 -1.21861,-3.51696 -2.18524,-5.54356 -1.73488,-3.63727 -1.63642,-5.43578 0.33353,-6.09242 0.81137,-0.27046 3.64237,4.15568 3.64237,5.69469 0,0.54514 0.30912,0.99117 0.68695,0.99117 0.37783,0 0.68695,-0.89314 0.68695,-1.98477 0,-1.09162 0.61199,-2.71454 1.35996,-3.60651 1.13067,-1.34834 1.47004,-1.45427 2.01293,-0.62833 0.4127,0.62786 0.41259,1.4426 -3.2e-4,2.21411 -0.84489,1.57871 -2.17185,8.00737 -2.07814,10.06792 0.085,1.86872 -1.04657,4.24191 -2.02255,4.24191 -0.37389,0 -0.9788,-0.78647 -1.34426,-1.74769 z m -110.4201,0.20204 c -0.37785,-0.47229 -0.92106,-1.63152 -1.20713,-2.57609 -0.28608,-0.94456 -0.80343,-1.89997 -1.14967,-2.12313 -0.36892,-0.23779 -0.29659,-1.13644 0.17476,-2.17091 0.65624,-1.44031 0.59949,-2.05753 -0.30833,-3.35363 -1.43785,-2.05282 -1.40299,-3.01064 0.1645,-4.51901 0.7024,-0.67593 1.46179,-2.00177 1.68755,-2.94633 0.58367,-2.4421 2.18412,-4.4172 3.11374,-3.84266 0.43692,0.27004 0.79117,2.12961 0.79117,4.15319 0,2.70757 0.28369,3.77307 1.08662,4.08119 1.90039,0.72923 4.21264,0.45088 5.09597,-0.61347 1.37182,-1.65294 2.97754,-1.15061 4.63695,1.45063 1.83472,2.87599 1.90806,4.14191 0.45099,7.78346 -2.41546,6.03685 -7.83575,3.61751 -7.83575,-3.49747 0,-1.60347 -0.31123,-1.97704 -1.71739,-2.0614 -0.94457,-0.0567 -2.08156,-0.13396 -2.52666,-0.17174 -1.18833,-0.10087 -1.96074,3.56177 -1.18269,5.60818 0.36963,0.97222 1.20089,2.17926 1.84723,2.68233 1.10114,0.85707 1.09117,0.97959 -0.15831,1.94512 -1.62214,1.2535 -2.077,1.27987 -2.96355,0.17174 z m 12.51168,-5.23317 c 0.224,-0.70575 0.0672,-2.17412 -0.3485,-3.26304 -0.72794,-1.90699 -0.7918,-1.93078 -1.73488,-0.6464 -1.16747,1.58999 -1.20389,2.11513 -0.26799,3.86387 0.89893,1.67966 1.82703,1.69765 2.35137,0.0455 z m 86.51274,4.09891 c -2.16435,-1.31978 -3.70582,-5.18925 -3.70582,-9.30253 0,-0.96617 -0.10844,-1.75667 -0.24097,-1.75667 -0.98071,0 -5.00969,1.74459 -5.41589,2.34513 -0.95818,1.41661 -0.52142,3.82852 0.84818,4.68385 0.75564,0.4719 1.37391,1.41162 1.37391,2.08824 0,1.94717 -1.9587,2.20953 -3.77272,0.50536 l -1.64194,-1.54252 -1.85053,1.45561 c -2.61467,2.05669 -5.63893,1.93441 -6.47392,-0.26177 -0.78703,-2.07006 -1.81006,-2.21588 -2.40457,-0.34275 -0.23996,0.75604 -1.06279,1.70993 -1.82849,2.11972 -1.12217,0.60056 -1.68802,0.46718 -2.91732,-0.68768 -0.83881,-0.78802 -2.33993,-1.43277 -3.33583,-1.43277 -0.99589,0 -2.09725,-0.51201 -2.44746,-1.1378 -0.35341,-0.6315 -0.47751,-5.0639 -0.2789,-9.96085 0.19682,-4.85268 0.16681,-8.82305 -0.0667,-8.82305 -0.99314,0 -2.61129,4.48568 -3.2846,9.1052 -1.33273,9.14384 -1.47071,9.78369 -2.21159,10.25596 -1.56904,1.00014 -1.88999,-0.48201 -1.43795,-6.64034 0.47831,-6.51579 -0.071,-14.09473 -1.02136,-14.09473 -1.48578,0 -3.35376,7.18189 -3.9256,15.09293 -0.40328,5.57914 -1.11576,7.57659 -2.70248,7.57659 -1.57446,0 -2.53825,-3.21914 -1.50458,-5.0254 0.58294,-1.01865 0.86043,-4.85623 0.8639,-11.94752 0.003,-7.40218 0.25389,-10.69561 0.8587,-11.30042 1.17765,-1.17765 2.08071,-0.0803 2.35025,2.85599 l 0.22072,2.40435 1.44126,-2.74783 c 1.04995,-2.0018 1.87387,-2.74782 3.03468,-2.74782 1.33463,0 1.7546,0.57939 2.58587,3.56755 l 0.99244,3.56755 1.70133,-2.0219 c 1.8541,-2.2035 3.92306,-2.62172 4.84243,-0.97888 0.32104,0.57367 0.35227,3.12399 0.0694,5.66738 -0.78459,7.05479 -0.68395,12.83743 0.2395,13.76087 1.27621,1.27622 1.92347,0.98377 1.92347,-0.86903 0,-2.30712 1.96443,-7.99695 3.26941,-9.46965 0.5859,-0.66119 1.61354,-1.20217 2.28364,-1.20217 0.67011,0 1.70178,-0.4834 2.29261,-1.07423 1.54788,-1.54789 2.58438,-0.54107 2.3328,2.26599 l -0.2176,2.4279 3.04436,0.0793 3.04436,0.0793 0.79163,-3.0952 c 1.11778,-4.37031 2.28575,-6.30256 3.64206,-6.02531 0.95002,0.19419 1.13457,0.99667 1.03646,4.50665 l -0.11936,4.27039 2.13145,0 c 1.17231,0 3.16407,-0.3734 4.42616,-0.82977 2.09754,-0.75849 2.44098,-0.68348 3.99754,0.87308 1.93947,1.93946 2.52741,6.72532 1.04556,8.51083 -1.485,1.78933 0.36124,3.333 3.32198,2.77756 2.25043,-0.42218 2.3448,-0.36977 1.45169,0.80619 -2.53674,3.34017 -5.10018,3.83472 -8.65158,1.66913 z m -14.31648,-4.49341 c 1.70071,-2.5956 1.05881,-4.66175 -1.66656,-5.36436 -3.38236,-0.87198 -4.26731,-0.31208 -3.75999,2.37894 0.4762,2.52595 2.04324,4.6631 3.41917,4.6631 0.49947,0 1.40279,-0.75496 2.00738,-1.67768 z m -9.998,0.30377 c 0,-0.37783 -0.30913,-0.68697 -0.68695,-0.68697 -0.37783,0 -0.68696,0.30914 -0.68696,0.68697 0,0.37781 0.30913,0.68695 0.68696,0.68695 0.37782,0 0.68695,-0.30914 0.68695,-0.68695 z m 26.37428,-1.77358 c 0.72815,-1.89749 0.45078,-4.24906 -0.54629,-4.63167 -1.40049,-0.53742 -1.78455,0.12649 -1.78455,3.08496 0,2.73264 1.49506,3.72474 2.33084,1.54671 z m -26.2096,-2.5199 c 1.55915,-1.20158 1.92013,-4.63694 0.48722,-4.63694 -0.60815,0 -2.71276,3.98001 -2.71276,5.13009 0,0.63462 1.06976,0.39758 2.22554,-0.49315 z m -50.87171,-9.23221 c -1.03648,-1.97656 0.2127,-4.33515 2.29602,-4.33515 1.63797,0 1.76388,0.20687 1.56779,2.57608 -0.1691,2.04313 -0.52336,2.62024 -1.71238,2.78951 -0.90876,0.12937 -1.75604,-0.27644 -2.15143,-1.03044 z"
       id="path3123"
       inkscape:connector-curvature="0"
       sodipodi:nodetypes="scsssssccsssssssssssssssssssssssssssccsssssssssssssscsssssssssssscccssssssssssccssssssssssssssssssssssssssssssssssssssssssssssssssssssssssssssssssssssssssscssssssssssssscscssscsscsssssssssssssssssssssssssssssscsssssssssssscssssssssssssssssssssssssssssssssssssssssssssccssccssssssscsssssssssssssssscsscssscssssssssscccssscssssssssssssssssssssssssssssss" />
  </g>
</svg>
